<?xml version="1.0" encoding="UTF-8"?>
<!DOCTYPE svg PUBLIC "-//W3C//DTD SVG 1.1//EN" "http://www.w3.org/Graphics/SVG/1.1/DTD/svg11.dtd">
<svg xmlns="http://www.w3.org/2000/svg" version="1.1" width="341px" height="416px" style="shape-rendering:geometricPrecision; text-rendering:geometricPrecision; image-rendering:optimizeQuality; fill-rule:evenodd; clip-rule:evenodd" xmlns:xlink="http://www.w3.org/1999/xlink">
<g><path style="opacity:1" fill="#191919" d="M 17.5,-0.5 C 21.1667,-0.5 24.8333,-0.5 28.5,-0.5C 40.3348,2.38873 52.0014,6.22206 63.5,11C 78.1827,19.0042 92.516,27.5042 106.5,36.5C 148.323,21.9056 190.156,21.9056 232,36.5C 246.889,27.2968 262.056,18.4634 277.5,10C 287.576,5.36406 297.91,1.86406 308.5,-0.5C 312.5,-0.5 316.5,-0.5 320.5,-0.5C 324.218,0.528019 327.552,2.36135 330.5,5C 332.894,6.95217 334.394,9.45217 335,12.5C 337.17,35.3062 334.837,57.6396 328,79.5C 322.893,91.5464 317.393,103.38 311.5,115C 311.772,129.217 317.772,140.217 329.5,148C 332.561,150.035 335.895,151.201 339.5,151.5C 338.127,158.072 334.793,163.572 329.5,168C 323.465,171.168 317.465,174.334 311.5,177.5C 318.069,183.542 323.569,190.209 328,197.5C 319.453,204.519 309.62,208.519 298.5,209.5C 292.034,209.71 292.034,210.377 298.5,211.5C 301.516,211.841 304.182,213.007 306.5,215C 308.329,216.113 309.163,217.613 309,219.5C 301.154,228.334 291.32,232.001 279.5,230.5C 279.344,233.841 278.011,236.674 275.5,239C 266.565,244.634 257.231,249.467 247.5,253.5C 266.931,280.286 277.765,310.286 280,343.5C 289.387,352.711 292.387,363.711 289,376.5C 281.69,399.404 266.19,408.904 242.5,405C 237.945,402.275 233.278,399.775 228.5,397.5C 233.373,380.859 236.373,363.859 237.5,346.5C 247.254,337.728 258.587,334.561 271.5,337C 259.572,331.283 248.572,332.783 238.5,341.5C 237.448,334.074 235.948,326.741 234,319.5C 235.452,345.218 232.952,370.552 226.5,395.5C 222.519,406.486 214.852,413.153 203.5,415.5C 200.167,415.5 196.833,415.5 193.5,415.5C 183.88,411.714 177.047,405.047 173,395.5C 171,394.167 169,394.167 167,395.5C 162.308,406.064 154.474,412.731 143.5,415.5C 139.833,415.5 136.167,415.5 132.5,415.5C 127.838,413.744 123.671,411.077 120,407.5C 117.206,402.907 114.706,398.24 112.5,393.5C 107.289,371.857 104.956,349.857 105.5,327.5C 106.629,325.372 106.796,323.039 106,320.5C 105.209,321.745 104.709,323.078 104.5,324.5C 103.668,330.486 102.835,336.486 102,342.5C 91.1125,332.784 79.2792,331.284 66.5,338C 80.3855,334.347 92.5521,337.513 103,347.5C 103.696,363.69 106.53,379.357 111.5,394.5C 111.5,395.5 111.5,396.5 111.5,397.5C 106.285,399.441 101.285,401.941 96.5,405C 76.3153,409.487 61.8153,402.32 53,383.5C 50.3939,377.787 48.8939,371.787 48.5,365.5C 29.0902,350.698 17.9235,331.031 15,306.5C 14.3333,297.5 14.3333,288.5 15,279.5C 19.1199,256.025 32.2866,248.525 54.5,257C 59.2788,260.892 61.9455,265.892 62.5,272C 61.3804,283.951 57.8804,295.117 52,305.5C 50.2536,316.458 52.9202,326.125 60,334.5C 63.9726,305.573 74.3059,279.239 91,255.5C 91.4828,254.552 91.6495,253.552 91.5,252.5C 80.4801,249.406 70.6467,244.072 62,236.5C 60.872,234.655 60.372,232.655 60.5,230.5C 49.8142,231.789 40.3142,229.122 32,222.5C 29.7091,219.165 30.2091,216.332 33.5,214C 36.3303,213.131 38.997,211.964 41.5,210.5C 30.6665,208.829 20.8331,204.829 12,198.5C 11.4795,196.711 11.8129,195.044 13,193.5C 17.6486,188.017 22.4819,182.684 27.5,177.5C 20.9946,174.44 14.6613,170.94 8.5,167C 5.32528,162.985 2.65861,158.651 0.5,154C 0.759083,152.739 1.42575,151.739 2.5,151C 20.1133,143.715 28.28,130.548 27,111.5C 7.68683,80.8725 0.353494,47.5391 5,11.5C 7.22104,5.33432 11.3877,1.33432 17.5,-0.5 Z"/></g>
<g><path style="opacity:1" fill="#fcfcfc" d="M 28.5,-0.5 C 121.833,-0.5 215.167,-0.5 308.5,-0.5C 297.91,1.86406 287.576,5.36406 277.5,10C 262.056,18.4634 246.889,27.2968 232,36.5C 190.156,21.9056 148.323,21.9056 106.5,36.5C 92.516,27.5042 78.1827,19.0042 63.5,11C 52.0014,6.22206 40.3348,2.38873 28.5,-0.5 Z"/></g>
<g><path style="opacity:1" fill="#eb5672" d="M 41.5,89.5 C 39.1712,91.8413 37.1712,94.5079 35.5,97.5C 34.4824,95.4061 33.4824,93.4061 32.5,91.5C 28.8609,76.3855 27.3609,61.0522 28,45.5C 28.5,41 31,38.5 35.5,38C 44.9811,37.9113 53.3144,40.9113 60.5,47C 65.733,48.1145 69.733,50.9479 72.5,55.5C 65.2156,61.282 58.3823,67.6153 52,74.5C 48.2549,79.3978 44.7549,84.3978 41.5,89.5 Z"/></g>
<g><path style="opacity:1" fill="#ea5671" d="M 311.5,66.5 C 310.291,70.6181 309.624,74.9515 309.5,79.5C 308.153,84.887 306.82,90.2204 305.5,95.5C 304.022,95.762 302.689,95.4287 301.5,94.5C 292.761,80.2623 281.761,68.0957 268.5,58C 267.552,57.5172 266.552,57.3505 265.5,57.5C 265.238,56.0222 265.571,54.6888 266.5,53.5C 274.992,46.8485 284.325,41.6818 294.5,38C 300.877,36.4793 306.377,37.9793 311,42.5C 311.5,50.4931 311.666,58.4931 311.5,66.5 Z"/></g>
<g><path style="opacity:1" fill="#512025" d="M 311.5,66.5 C 311.844,71.1219 311.177,75.4552 309.5,79.5C 309.624,74.9515 310.291,70.6181 311.5,66.5 Z"/></g>
<g><path style="opacity:1" fill="#35171b" d="M 41.5,89.5 C 40.4639,91.3911 40.4639,93.2245 41.5,95C 40.552,95.4828 39.552,95.6495 38.5,95.5C 39.1667,99.5 37.5,101.167 33.5,100.5C 32.8413,97.5448 32.5079,94.5448 32.5,91.5C 33.4824,93.4061 34.4824,95.4061 35.5,97.5C 37.1712,94.5079 39.1712,91.8413 41.5,89.5 Z"/></g>
<g><path style="opacity:1" fill="#f0f0f0" d="M 95.5,106.5 C 116.749,104.531 131.583,113.198 140,132.5C 144.476,155.384 135.976,171.217 114.5,180C 90.0187,184.683 74.1853,175.183 67,151.5C 64.3995,128.678 73.8995,113.678 95.5,106.5 Z"/></g>
<g><path style="opacity:1" fill="#f0f0f0" d="M 226.5,106.5 C 250.82,104.051 266.32,114.384 273,137.5C 272.881,167.617 257.715,182.117 227.5,181C 205.173,173.535 195.673,158.035 199,134.5C 203.684,120.65 212.851,111.316 226.5,106.5 Z"/></g>
<g><path style="opacity:1" fill="#1b1b1b" d="M 75.5,129.5 C 76.1667,131.167 76.8333,132.833 77.5,134.5C 79.2011,141.862 83.8677,145.528 91.5,145.5C 102.733,144.714 107.567,138.714 106,127.5C 103.353,121.088 98.5199,118.088 91.5,118.5C 89.1166,118.637 86.7832,118.971 84.5,119.5C 99.9138,109.068 114.414,110.401 128,123.5C 138.843,139.086 137.677,153.753 124.5,167.5C 110.458,178.113 96.458,178.113 82.5,167.5C 81.6143,166.675 81.281,165.675 81.5,164.5C 85.9646,164.113 88.2979,161.613 88.5,157C 87.0886,151.859 83.7553,150.192 78.5,152C 77.3333,153.167 76.1667,154.333 75,155.5C 71.6373,146.77 71.804,138.104 75.5,129.5 Z"/></g>
<g><path style="opacity:1" fill="#1a1a1a" d="M 207.5,129.5 C 208.167,131.833 208.833,134.167 209.5,136.5C 214.34,145.526 221.674,148.026 231.5,144C 240.012,137.05 240.679,129.383 233.5,121C 228.742,118.856 223.742,118.023 218.5,118.5C 218.5,118.167 218.5,117.833 218.5,117.5C 235.917,108.683 250.75,112.016 263,127.5C 270.766,145.186 266.932,159.686 251.5,171C 237.97,178.183 225.636,176.683 214.5,166.5C 216.524,164.31 218.357,161.977 220,159.5C 220.448,152.625 217.282,150.125 210.5,152C 208.951,153.214 207.785,154.714 207,156.5C 203.55,147.397 203.716,138.397 207.5,129.5 Z"/></g>
<g><path style="opacity:1" fill="#fbfbfb" d="M 77.5,134.5 C 77.3367,132.143 77.5034,129.81 78,127.5C 80.0007,124.669 82.1673,122.003 84.5,119.5C 86.7832,118.971 89.1166,118.637 91.5,118.5C 98.5199,118.088 103.353,121.088 106,127.5C 107.567,138.714 102.733,144.714 91.5,145.5C 83.8677,145.528 79.2011,141.862 77.5,134.5 Z"/></g>
<g><path style="opacity:1" fill="#f9f9f9" d="M 218.5,118.5 C 223.742,118.023 228.742,118.856 233.5,121C 240.679,129.383 240.012,137.05 231.5,144C 221.674,148.026 214.34,145.526 209.5,136.5C 209.335,133.482 209.502,130.482 210,127.5C 212.362,123.973 215.196,120.973 218.5,118.5 Z"/></g>
<g><path style="opacity:1" fill="#a7a7a7" d="M 84.5,119.5 C 82.1673,122.003 80.0007,124.669 78,127.5C 77.5034,129.81 77.3367,132.143 77.5,134.5C 76.8333,132.833 76.1667,131.167 75.5,129.5C 77.1053,124.896 80.1053,121.562 84.5,119.5 Z"/></g>
<g><path style="opacity:1" fill="#a4a4a4" d="M 218.5,117.5 C 218.5,117.833 218.5,118.167 218.5,118.5C 215.196,120.973 212.362,123.973 210,127.5C 209.502,130.482 209.335,133.482 209.5,136.5C 208.833,134.167 208.167,131.833 207.5,129.5C 209.777,124.223 213.444,120.223 218.5,117.5 Z"/></g>
<g><path style="opacity:1" fill="#fdfdfd" d="M 320.5,-0.5 C 327.167,-0.5 333.833,-0.5 340.5,-0.5C 340.5,138.167 340.5,276.833 340.5,415.5C 294.833,415.5 249.167,415.5 203.5,415.5C 214.852,413.153 222.519,406.486 226.5,395.5C 227.167,396.167 227.833,396.833 228.5,397.5C 233.278,399.775 237.945,402.275 242.5,405C 266.19,408.904 281.69,399.404 289,376.5C 292.387,363.711 289.387,352.711 280,343.5C 277.765,310.286 266.931,280.286 247.5,253.5C 257.231,249.467 266.565,244.634 275.5,239C 278.011,236.674 279.344,233.841 279.5,230.5C 291.32,232.001 301.154,228.334 309,219.5C 309.163,217.613 308.329,216.113 306.5,215C 304.182,213.007 301.516,211.841 298.5,211.5C 298.5,210.833 298.5,210.167 298.5,209.5C 309.62,208.519 319.453,204.519 328,197.5C 323.569,190.209 318.069,183.542 311.5,177.5C 317.465,174.334 323.465,171.168 329.5,168C 334.793,163.572 338.127,158.072 339.5,151.5C 335.895,151.201 332.561,150.035 329.5,148C 317.772,140.217 311.772,129.217 311.5,115C 317.393,103.38 322.893,91.5464 328,79.5C 334.837,57.6396 337.17,35.3062 335,12.5C 334.394,9.45217 332.894,6.95217 330.5,5C 327.552,2.36135 324.218,0.528019 320.5,-0.5 Z"/></g>
<g><path style="opacity:1" fill="#fbfbfb" d="M -0.5,-0.5 C 5.5,-0.5 11.5,-0.5 17.5,-0.5C 11.3877,1.33432 7.22104,5.33432 5,11.5C 0.353494,47.5391 7.68683,80.8725 27,111.5C 28.28,130.548 20.1133,143.715 2.5,151C 1.42575,151.739 0.759083,152.739 0.5,154C 2.65861,158.651 5.32528,162.985 8.5,167C 14.6613,170.94 20.9946,174.44 27.5,177.5C 22.4819,182.684 17.6486,188.017 13,193.5C 11.8129,195.044 11.4795,196.711 12,198.5C 20.8331,204.829 30.6665,208.829 41.5,210.5C 38.997,211.964 36.3303,213.131 33.5,214C 30.2091,216.332 29.7091,219.165 32,222.5C 40.3142,229.122 49.8142,231.789 60.5,230.5C 60.372,232.655 60.872,234.655 62,236.5C 70.6467,244.072 80.4801,249.406 91.5,252.5C 91.6495,253.552 91.4828,254.552 91,255.5C 74.3059,279.239 63.9726,305.573 60,334.5C 52.9202,326.125 50.2536,316.458 52,305.5C 57.8804,295.117 61.3804,283.951 62.5,272C 61.9455,265.892 59.2788,260.892 54.5,257C 32.2866,248.525 19.1199,256.025 15,279.5C 14.3333,288.5 14.3333,297.5 15,306.5C 17.9235,331.031 29.0902,350.698 48.5,365.5C 48.8939,371.787 50.3939,377.787 53,383.5C 61.8153,402.32 76.3153,409.487 96.5,405C 101.285,401.941 106.285,399.441 111.5,397.5C 111.5,396.5 111.5,395.5 111.5,394.5C 111.5,393.833 111.833,393.5 112.5,393.5C 114.706,398.24 117.206,402.907 120,407.5C 123.671,411.077 127.838,413.744 132.5,415.5C 88.1667,415.5 43.8333,415.5 -0.5,415.5C -0.5,276.833 -0.5,138.167 -0.5,-0.5 Z"/></g>
<g><path style="opacity:1" fill="#6e2c31" d="M 164.5,175.5 C 161.825,176.103 159.492,177.436 157.5,179.5C 158.445,176.013 160.778,174.68 164.5,175.5 Z"/></g>
<g><path style="opacity:1" fill="#ea5671" d="M 164.5,175.5 C 169.511,175.334 174.511,175.501 179.5,176C 184.58,184.135 182.913,190.635 174.5,195.5C 165.895,197.909 160.062,194.909 157,186.5C 156.204,183.961 156.371,181.628 157.5,179.5C 159.492,177.436 161.825,176.103 164.5,175.5 Z"/></g>
<g><path style="opacity:1" fill="#a3a3a3" d="M 298.5,209.5 C 298.5,210.167 298.5,210.833 298.5,211.5C 292.034,210.377 292.034,209.71 298.5,209.5 Z"/></g>
<g><path style="opacity:1" fill="#fafafa" d="M 99.5,255.5 C 146.195,270.165 192.862,270.165 239.5,255.5C 240.215,262.902 237.548,268.735 231.5,273C 227.358,275.072 223.025,276.572 218.5,277.5C 211.966,275.034 205.466,275.034 199,277.5C 194.872,283.573 190.372,289.406 185.5,295C 180.243,299.42 174.577,303.254 168.5,306.5C 167.295,302.718 165.795,299.052 164,295.5C 161.641,292.962 160.141,293.629 159.5,297.5C 151.927,292.715 145.927,286.382 141.5,278.5C 134.376,274.964 127.043,274.63 119.5,277.5C 109.668,273.003 103.001,265.67 99.5,255.5 Z"/></g>
<g><path style="opacity:1" fill="#656565" d="M 105.5,327.5 C 105.737,326.209 105.404,325.209 104.5,324.5C 104.709,323.078 105.209,321.745 106,320.5C 106.796,323.039 106.629,325.372 105.5,327.5 Z"/></g>
<g><path style="opacity:1" fill="#e6e6e6" d="M 228.5,397.5 C 227.833,396.833 227.167,396.167 226.5,395.5C 232.952,370.552 235.452,345.218 234,319.5C 235.948,326.741 237.448,334.074 238.5,341.5C 248.572,332.783 259.572,331.283 271.5,337C 258.587,334.561 247.254,337.728 237.5,346.5C 236.373,363.859 233.373,380.859 228.5,397.5 Z"/></g>
<g><path style="opacity:1" fill="#e1e1e1" d="M 104.5,324.5 C 105.404,325.209 105.737,326.209 105.5,327.5C 104.956,349.857 107.289,371.857 112.5,393.5C 111.833,393.5 111.5,393.833 111.5,394.5C 106.53,379.357 103.696,363.69 103,347.5C 92.5521,337.513 80.3855,334.347 66.5,338C 79.2792,331.284 91.1125,332.784 102,342.5C 102.835,336.486 103.668,330.486 104.5,324.5 Z"/></g>
<g><path style="opacity:1" fill="#a2a2a2" d="M 170.5,356.5 C 170.371,354.784 170.038,353.117 169.5,351.5C 170.942,341.466 173.109,331.466 176,321.5C 174.11,333.235 172.277,344.901 170.5,356.5 Z"/></g>
<g><path style="opacity:1" fill="#cecece" d="M 169.5,351.5 C 170.038,353.117 170.371,354.784 170.5,356.5C 170.5,358.833 170.5,361.167 170.5,363.5C 169.833,361.167 169.167,358.833 168.5,356.5C 167.425,344.728 165.925,333.061 164,321.5C 167.086,331.27 168.92,341.27 169.5,351.5 Z"/></g>
<g><path style="opacity:1" fill="#ba5368" d="M 89.5,355.5 C 83.2093,353.45 80.5426,355.783 81.5,362.5C 78.7839,356.254 80.7839,353.421 87.5,354C 88.4158,354.278 89.0825,354.778 89.5,355.5 Z"/></g>
<g><path style="opacity:1" fill="#bb4e65" d="M 275.5,361.5 C 275.188,355.864 272.188,353.531 266.5,354.5C 266.67,355.822 266.337,356.989 265.5,358C 266.308,358.308 266.975,358.808 267.5,359.5C 266.572,360.768 266.405,362.101 267,363.5C 269.041,364.423 271.208,364.756 273.5,364.5C 264.97,366.457 262.137,363.124 265,354.5C 269.163,352.726 272.83,353.393 276,356.5C 276.78,358.387 276.613,360.054 275.5,361.5 Z"/></g>
<g><path style="opacity:1" fill="#ef5671" d="M 275.5,361.5 C 274.833,362.5 274.167,363.5 273.5,364.5C 271.208,364.756 269.041,364.423 267,363.5C 266.405,362.101 266.572,360.768 267.5,359.5C 266.975,358.808 266.308,358.308 265.5,358C 266.337,356.989 266.67,355.822 266.5,354.5C 272.188,353.531 275.188,355.864 275.5,361.5 Z"/></g>
<g><path style="opacity:1" fill="#e65570" d="M 65.5,353.5 C 74.2985,352.768 76.9652,356.268 73.5,364C 64.0121,365.998 61.3454,362.498 65.5,353.5 Z"/></g>
<g><path style="opacity:1" fill="#dd556e" d="M 250.5,353.5 C 256.861,352.697 259.694,355.364 259,361.5C 255.612,365.403 252.279,365.403 249,361.5C 248.109,358.502 248.609,355.836 250.5,353.5 Z"/></g>
<g><path style="opacity:1" fill="#e7536f" d="M 89.5,355.5 C 92.2756,358.51 91.9423,361.344 88.5,364C 86.5,364.667 84.5,364.667 82.5,364C 81.944,363.617 81.6107,363.117 81.5,362.5C 80.5426,355.783 83.2093,353.45 89.5,355.5 Z"/></g>
<g><path style="opacity:1" fill="#8a8a8a" d="M 168.5,356.5 C 169.167,358.833 169.833,361.167 170.5,363.5C 170.664,366.187 170.497,368.854 170,371.5C 168.95,366.552 168.45,361.552 168.5,356.5 Z"/></g>
<g><path style="opacity:1" fill="#da566d" d="M 269.5,383.5 C 269.276,379.821 268.942,376.154 268.5,372.5C 265.951,372.441 263.951,373.441 262.5,375.5C 261.08,373.78 259.747,371.946 258.5,370C 256.892,369.342 255.725,369.842 255,371.5C 253.989,370.663 252.822,370.33 251.5,370.5C 251.799,372.973 252.799,375.14 254.5,377C 254.167,377.5 253.833,378 253.5,378.5C 251.833,375.833 250.167,375.833 248.5,378.5C 248.098,376.366 248.098,374.366 248.5,372.5C 247.914,372.709 247.414,373.043 247,373.5C 246.505,375.473 246.338,377.473 246.5,379.5C 244.733,372.374 247.733,368.208 255.5,367C 265.364,365.176 270.364,369.343 270.5,379.5C 270.489,381.045 270.156,382.378 269.5,383.5 Z"/></g>
<g><path style="opacity:1" fill="#9f4455" d="M 65.5,369.5 C 60.164,368.185 57.4974,370.185 57.5,375.5C 56.0185,369.806 58.3518,367.306 64.5,368C 65.056,368.383 65.3893,368.883 65.5,369.5 Z"/></g>
<g><path style="opacity:1" fill="#eb5672" d="M 89.5,383.5 C 87.4086,383.682 85.4086,383.348 83.5,382.5C 82.7022,384.078 82.2022,385.744 82,387.5C 81.0053,388.066 80.172,388.733 79.5,389.5C 76.7628,389.599 74.0961,389.265 71.5,388.5C 68.6177,381.927 68.951,375.594 72.5,369.5C 74.3069,367.555 76.6402,366.555 79.5,366.5C 83.9835,366.785 87.9835,368.285 91.5,371C 95.8601,376.005 95.1935,380.172 89.5,383.5 Z"/></g>
<g><path style="opacity:1" fill="#e65672" d="M 65.5,369.5 C 66.1667,369.833 66.8333,370.167 67.5,370.5C 67.552,372.903 67.2186,375.236 66.5,377.5C 62.8479,379.285 59.8479,378.618 57.5,375.5C 57.4974,370.185 60.164,368.185 65.5,369.5 Z"/></g>
<g><path style="opacity:1" fill="#401c1e" d="M 72.5,369.5 C 68.951,375.594 68.6177,381.927 71.5,388.5C 70.8501,388.196 70.1835,387.863 69.5,387.5C 68.6747,383.878 68.1747,380.211 68,376.5C 67.6174,377.056 67.1174,377.389 66.5,377.5C 67.2186,375.236 67.552,372.903 67.5,370.5C 68.2679,371.263 68.7679,372.263 69,373.5C 69.0572,371.09 70.2239,369.756 72.5,369.5 Z"/></g>
<g><path style="opacity:1" fill="#e25570" d="M 275.5,367.5 C 277.929,367.884 280.263,368.551 282.5,369.5C 283.703,376.35 281.037,379.183 274.5,378C 270.514,374.105 270.847,370.605 275.5,367.5 Z"/></g>
<g><path style="opacity:1" fill="#ee5572" d="M 269.5,383.5 C 269.762,388.07 267.596,390.07 263,389.5C 258.541,389.87 256.041,387.87 255.5,383.5C 252.753,383.813 250.086,383.48 247.5,382.5C 246.873,381.583 246.539,380.583 246.5,379.5C 246.338,377.473 246.505,375.473 247,373.5C 247.414,373.043 247.914,372.709 248.5,372.5C 248.098,374.366 248.098,376.366 248.5,378.5C 250.167,375.833 251.833,375.833 253.5,378.5C 253.833,378 254.167,377.5 254.5,377C 252.799,375.14 251.799,372.973 251.5,370.5C 252.822,370.33 253.989,370.663 255,371.5C 255.725,369.842 256.892,369.342 258.5,370C 259.747,371.946 261.08,373.78 262.5,375.5C 263.951,373.441 265.951,372.441 268.5,372.5C 268.942,376.154 269.276,379.821 269.5,383.5 Z"/></g>
<g><path style="opacity:1" fill="#a04858" d="M 89.5,383.5 C 88.0484,384.302 86.3817,384.802 84.5,385C 84.2072,388.094 82.5406,389.594 79.5,389.5C 80.172,388.733 81.0053,388.066 82,387.5C 82.2022,385.744 82.7022,384.078 83.5,382.5C 85.4086,383.348 87.4086,383.682 89.5,383.5 Z"/></g>
<g><path style="opacity:1" fill="#f4f4f4" d="M 193.5,415.5 C 176.833,415.5 160.167,415.5 143.5,415.5C 154.474,412.731 162.308,406.064 167,395.5C 169,394.167 171,394.167 173,395.5C 177.047,405.047 183.88,411.714 193.5,415.5 Z"/></g>
</svg>
