<svg width="114" height="51" viewBox="0 0 114 51" fill="none" xmlns="http://www.w3.org/2000/svg">
<g id="CoTnent Studio">
<path d="M10.7847 19.5833C9.32601 19.5833 7.97669 19.3463 6.73678 18.8722C5.5151 18.3799 4.44841 17.6961 3.53671 16.8209C2.64324 15.9274 1.94123 14.8881 1.43068 13.7029C0.920122 12.5177 0.664846 11.2139 0.664846 9.79167C0.664846 8.36941 0.920122 7.06568 1.43068 5.88047C1.94123 4.69526 2.65235 3.66504 3.56406 2.7898C4.47576 1.89634 5.54245 1.21256 6.76413 0.738476C8.00404 0.246159 9.35336 0 10.8121 0C12.289 0 13.6475 0.255276 14.8874 0.765829C16.1455 1.25815 17.2122 1.99662 18.0875 2.98126L16.3096 4.70438C15.5803 3.93855 14.7597 3.37329 13.848 3.00861C12.9363 2.6257 11.9608 2.43424 10.9215 2.43424C9.84568 2.43424 8.84281 2.61658 7.91287 2.98126C7.00117 3.34594 6.20799 3.85649 5.53333 4.51292C4.85867 5.16934 4.32988 5.95341 3.94697 6.86511C3.58229 7.75857 3.39995 8.73409 3.39995 9.79167C3.39995 10.8492 3.58229 11.8339 3.94697 12.7456C4.32988 13.639 4.85867 14.414 5.53333 15.0704C6.20799 15.7268 7.00117 16.2374 7.91287 16.6021C8.84281 16.9668 9.84568 17.1491 10.9215 17.1491C11.9608 17.1491 12.9363 16.9668 13.848 16.6021C14.7597 16.2192 15.5803 15.6357 16.3096 14.8516L18.0875 16.5747C17.2122 17.5594 16.1455 18.307 14.8874 18.8175C13.6475 19.3281 12.2799 19.5833 10.7847 19.5833Z" fill="#1A1919"/>
<path d="M27.2007 19.5286C25.742 19.5286 24.4474 19.2095 23.3168 18.5714C22.1863 17.9332 21.2929 17.0579 20.6364 15.9456C19.98 14.8151 19.6518 13.5388 19.6518 12.1165C19.6518 10.676 19.98 9.39964 20.6364 8.28736C21.2929 7.17509 22.1863 6.30897 23.3168 5.68901C24.4474 5.05082 25.742 4.73173 27.2007 4.73173C28.6412 4.73173 29.9267 5.05082 31.0572 5.68901C32.2059 6.30897 33.0994 7.17509 33.7376 8.28736C34.394 9.3814 34.7222 10.6578 34.7222 12.1165C34.7222 13.557 34.394 14.8334 33.7376 15.9456C33.0994 17.0579 32.2059 17.9332 31.0572 18.5714C29.9267 19.2095 28.6412 19.5286 27.2007 19.5286ZM27.2007 17.2311C28.1306 17.2311 28.9603 17.0215 29.6896 16.6021C30.4372 16.1827 31.0207 15.5901 31.4401 14.8243C31.8595 14.0402 32.0692 13.1376 32.0692 12.1165C32.0692 11.0772 31.8595 10.1837 31.4401 9.4361C31.0207 8.67028 30.4372 8.07767 29.6896 7.65829C28.9603 7.2389 28.1306 7.02921 27.2007 7.02921C26.2708 7.02921 25.4411 7.2389 24.7117 7.65829C23.9824 8.07767 23.3989 8.67028 22.9613 9.4361C22.5237 10.1837 22.3049 11.0772 22.3049 12.1165C22.3049 13.1376 22.5237 14.0402 22.9613 14.8243C23.3989 15.5901 23.9824 16.1827 24.7117 16.6021C25.4411 17.0215 26.2708 17.2311 27.2007 17.2311Z" fill="#1A1919"/>
<path d="M40.348 19.3645V2.59835H33.7837V0.218807H49.62V2.59835H43.0557V19.3645H40.348Z" fill="#1A1919"/>
<path d="M59.6091 4.73173C60.7943 4.73173 61.8337 4.95965 62.7271 5.4155C63.6388 5.87135 64.35 6.56425 64.8605 7.49418C65.3711 8.42412 65.6263 9.60021 65.6263 11.0225V19.3645H63.0006V11.3233C63.0006 9.91931 62.6542 8.86173 61.9613 8.15061C61.2866 7.43948 60.3293 7.08392 59.0894 7.08392C58.1595 7.08392 57.3481 7.26626 56.6552 7.63094C55.9623 7.99562 55.4244 8.53352 55.0415 9.24465C54.6768 9.95577 54.4945 10.8401 54.4945 11.8977V19.3645H51.8688V4.86848H54.3851V8.77968L53.9748 7.74034C54.4489 6.79217 55.1782 6.05369 56.1629 5.52491C57.1475 4.99612 58.2963 4.73173 59.6091 4.73173Z" fill="#1A1919"/>
<path d="M76.9405 19.5286C75.3906 19.5286 74.023 19.2095 72.8378 18.5714C71.6708 17.9332 70.7591 17.0579 70.1027 15.9456C69.4645 14.8334 69.1454 13.557 69.1454 12.1165C69.1454 10.676 69.4554 9.39964 70.0754 8.28736C70.7136 7.17509 71.5797 6.30897 72.6737 5.68901C73.786 5.05082 75.035 4.73173 76.4208 4.73173C77.8248 4.73173 79.0647 5.04171 80.1405 5.66166C81.2164 6.28162 82.0551 7.15685 82.6568 8.28736C83.2768 9.39964 83.5868 10.7034 83.5868 12.1986C83.5868 12.308 83.5777 12.4356 83.5594 12.5815C83.5594 12.7273 83.5503 12.8641 83.5321 12.9917H71.1968V11.1045H82.1645L81.0978 11.7609C81.1161 10.831 80.9246 10.0014 80.5235 9.272C80.1223 8.54264 79.5662 7.97738 78.855 7.57624C78.1622 7.15685 77.3507 6.94716 76.4208 6.94716C75.5091 6.94716 74.6977 7.15685 73.9866 7.57624C73.2754 7.97738 72.7193 8.55175 72.3181 9.29935C71.917 10.0287 71.7164 10.8675 71.7164 11.8156V12.2533C71.7164 13.2197 71.9352 14.0858 72.3728 14.8516C72.8287 15.5992 73.4578 16.1827 74.2601 16.6021C75.0624 17.0215 75.9832 17.2311 77.0225 17.2311C77.8795 17.2311 78.6545 17.0853 79.3474 16.7935C80.0585 16.5018 80.6784 16.0642 81.2072 15.4807L82.6568 17.1764C82.0004 17.9423 81.1799 18.5258 80.1952 18.9269C79.2288 19.3281 78.1439 19.5286 76.9405 19.5286Z" fill="#1A1919"/>
<path d="M94.9731 4.73173C96.1583 4.73173 97.1977 4.95965 98.0912 5.4155C99.0029 5.87135 99.714 6.56425 100.225 7.49418C100.735 8.42412 100.99 9.60021 100.99 11.0225V19.3645H98.3647V11.3233C98.3647 9.91931 98.0182 8.86173 97.3253 8.15061C96.6507 7.43948 95.6934 7.08392 94.4535 7.08392C93.5235 7.08392 92.7121 7.26626 92.0192 7.63094C91.3263 7.99562 90.7884 8.53352 90.4055 9.24465C90.0408 9.95577 89.8585 10.8401 89.8585 11.8977V19.3645H87.2328V4.86848H89.7491V8.77968L89.3388 7.74034C89.8129 6.79217 90.5423 6.05369 91.5269 5.52491C92.5115 4.99612 93.6603 4.73173 94.9731 4.73173Z" fill="#1A1919"/>
<path d="M110.828 19.5286C109.369 19.5286 108.238 19.1366 107.436 18.3525C106.634 17.5685 106.233 16.4471 106.233 14.9884V1.69576H108.858V14.879C108.858 15.663 109.05 16.2647 109.433 16.6841C109.834 17.1035 110.399 17.3132 111.128 17.3132C111.949 17.3132 112.633 17.0853 113.18 16.6294L114 18.5166C113.599 18.8631 113.116 19.1184 112.551 19.2825C112.004 19.4466 111.429 19.5286 110.828 19.5286ZM103.771 7.02921V4.86848H113.016V7.02921H103.771Z" fill="#1A1919"/>
<path d="M7.80347 50.8417C6.34474 50.8417 4.94984 50.6229 3.61876 50.1852C2.28767 49.7294 1.23922 49.1459 0.473389 48.4348L1.48538 46.3014C2.21474 46.9396 3.14467 47.4684 4.27518 47.8877C5.40569 48.3071 6.58179 48.5168 7.80347 48.5168C8.91574 48.5168 9.81833 48.3892 10.5112 48.1339C11.2041 47.8786 11.7147 47.5322 12.0429 47.0946C12.3711 46.6387 12.5352 46.1282 12.5352 45.5629C12.5352 44.9065 12.3164 44.3777 11.8788 43.9766C11.4594 43.5754 10.9033 43.2563 10.2104 43.0193C9.5357 42.764 8.7881 42.5452 7.96757 42.3628C7.14704 42.1805 6.31739 41.9708 5.47863 41.7338C4.6581 41.4785 3.90139 41.1594 3.20849 40.7765C2.53383 40.3936 1.98681 39.883 1.56743 39.2448C1.14805 38.5884 0.938356 37.7496 0.938356 36.7285C0.938356 35.7439 1.19363 34.8413 1.70419 34.0208C2.23297 33.182 3.03527 32.5165 4.11108 32.0242C5.20512 31.5136 6.5909 31.2583 8.26843 31.2583C9.38071 31.2583 10.4839 31.4042 11.5779 31.6959C12.672 31.9877 13.6201 32.4071 14.4224 32.9541L13.5198 35.1422C12.6993 34.5951 11.8332 34.2031 10.9215 33.9661C10.0098 33.7108 9.12543 33.5832 8.26843 33.5832C7.19263 33.5832 6.30828 33.7199 5.61538 33.9934C4.92249 34.2669 4.41194 34.6316 4.08373 35.0875C3.77375 35.5433 3.61876 36.0539 3.61876 36.6191C3.61876 37.2938 3.82845 37.8317 4.24783 38.2328C4.68545 38.634 5.24159 38.9531 5.91624 39.1901C6.60914 39.4272 7.36585 39.646 8.18638 39.8465C9.00691 40.0289 9.82744 40.2386 10.648 40.4756C11.4867 40.7127 12.2435 41.0226 12.9181 41.4056C13.611 41.7885 14.1671 42.299 14.5865 42.9372C15.0059 43.5754 15.2156 44.3959 15.2156 45.3988C15.2156 46.3652 14.9512 47.2678 14.4224 48.1066C13.8936 48.9271 13.0731 49.5926 11.9608 50.1032C10.8668 50.5955 9.481 50.8417 7.80347 50.8417Z" fill="#1A1919"/>
<path d="M23.8064 50.787C22.3477 50.787 21.2172 50.3949 20.4149 49.6109C19.6126 48.8268 19.2114 47.7054 19.2114 46.2467V32.9541H21.8371V46.1373C21.8371 46.9213 22.0286 47.5231 22.4115 47.9425C22.8126 48.3618 23.3779 48.5715 24.1072 48.5715C24.9278 48.5715 25.6116 48.3436 26.1586 47.8877L26.9791 49.775C26.578 50.1214 26.0948 50.3767 25.5295 50.5408C24.9825 50.7049 24.4081 50.787 23.8064 50.787ZM16.7498 38.2875V36.1268H25.9945V38.2875H16.7498Z" fill="#1A1919"/>
<path d="M36.2528 50.787C35.0129 50.787 33.9189 50.559 32.9707 50.1032C32.0408 49.6473 31.3114 48.9544 30.7826 48.0245C30.2721 47.0763 30.0168 45.8911 30.0168 44.4689V36.1268H32.6425V44.168C32.6425 45.5903 32.9798 46.657 33.6545 47.3681C34.3474 48.0792 35.3138 48.4348 36.5537 48.4348C37.4654 48.4348 38.2586 48.2524 38.9332 47.8877C39.6079 47.5048 40.1275 46.9578 40.4922 46.2467C40.8569 45.5173 41.0392 44.6421 41.0392 43.621V36.1268H43.6649V50.6228H41.176V46.7117L41.5863 47.751C41.1122 48.7174 40.4011 49.465 39.4529 49.9938C38.5047 50.5226 37.438 50.787 36.2528 50.787Z" fill="#1A1919"/>
<path d="M54.6534 50.787C53.2494 50.787 51.9913 50.477 50.879 49.857C49.785 49.2371 48.9188 48.3709 48.2806 47.2587C47.6425 46.1464 47.3234 44.8518 47.3234 43.3748C47.3234 41.8979 47.6425 40.6124 48.2806 39.5183C48.9188 38.4061 49.785 37.5399 50.879 36.92C51.9913 36.3 53.2494 35.99 54.6534 35.99C55.8751 35.99 56.9783 36.2636 57.9629 36.8106C58.9476 37.3576 59.7316 38.1781 60.3151 39.2722C60.9168 40.3662 61.2177 41.7338 61.2177 43.3748C61.2177 45.0159 60.9259 46.3834 60.3424 47.4775C59.7772 48.5715 59.0023 49.4012 58.0176 49.9664C57.033 50.5134 55.9116 50.787 54.6534 50.787ZM54.8722 48.4895C55.7839 48.4895 56.6045 48.2798 57.3338 47.8604C58.0814 47.441 58.6649 46.8484 59.0843 46.0826C59.5219 45.2985 59.7407 44.3959 59.7407 43.3748C59.7407 42.3355 59.5219 41.442 59.0843 40.6944C58.6649 39.9286 58.0814 39.336 57.3338 38.9166C56.6045 38.4972 55.7839 38.2875 54.8722 38.2875C53.9423 38.2875 53.1127 38.4972 52.3833 38.9166C51.6539 39.336 51.0705 39.9286 50.6328 40.6944C50.1952 41.442 49.9764 42.3355 49.9764 43.3748C49.9764 44.3959 50.1952 45.2985 50.6328 46.0826C51.0705 46.8484 51.6539 47.441 52.3833 47.8604C53.1127 48.2798 53.9423 48.4895 54.8722 48.4895ZM59.8228 50.6228V46.7117L59.9869 43.3475L59.7134 39.9833V30.3284H62.3391V50.6228H59.8228Z" fill="#1A1919"/>
<path d="M67.3071 50.6228V36.1268H69.9328V50.6228H67.3071ZM68.62 33.337C68.1094 33.337 67.6809 33.1729 67.3345 32.8447C67.0063 32.5165 66.8422 32.1153 66.8422 31.6412C66.8422 31.1489 67.0063 30.7386 67.3345 30.4104C67.6809 30.0822 68.1094 29.9181 68.62 29.9181C69.1305 29.9181 69.5499 30.0822 69.8781 30.4104C70.2246 30.7204 70.3978 31.1124 70.3978 31.5865C70.3978 32.0788 70.2337 32.4982 69.9055 32.8447C69.5773 33.1729 69.1488 33.337 68.62 33.337Z" fill="#1A1919"/>
<path d="M81.1549 50.787C79.6962 50.787 78.4015 50.4679 77.271 49.8297C76.1405 49.1915 75.2471 48.3162 74.5906 47.204C73.9342 46.0735 73.606 44.7971 73.606 43.3748C73.606 41.9343 73.9342 40.658 74.5906 39.5457C75.2471 38.4334 76.1405 37.5673 77.271 36.9473C78.4015 36.3091 79.6962 35.99 81.1549 35.99C82.5954 35.99 83.8809 36.3091 85.0114 36.9473C86.1601 37.5673 87.0536 38.4334 87.6918 39.5457C88.3482 40.6397 88.6764 41.9161 88.6764 43.3748C88.6764 44.8153 88.3482 46.0917 87.6918 47.204C87.0536 48.3162 86.1601 49.1915 85.0114 49.8297C83.8809 50.4679 82.5954 50.787 81.1549 50.787ZM81.1549 48.4895C82.0848 48.4895 82.9145 48.2798 83.6438 47.8604C84.3914 47.441 84.9749 46.8484 85.3943 46.0826C85.8137 45.2985 86.0234 44.3959 86.0234 43.3748C86.0234 42.3355 85.8137 41.442 85.3943 40.6944C84.9749 39.9286 84.3914 39.336 83.6438 38.9166C82.9145 38.4972 82.0848 38.2875 81.1549 38.2875C80.2249 38.2875 79.3953 38.4972 78.6659 38.9166C77.9366 39.336 77.3531 39.9286 76.9155 40.6944C76.4779 41.442 76.259 42.3355 76.259 43.3748C76.259 44.3959 76.4779 45.2985 76.9155 46.0826C77.3531 46.8484 77.9366 47.441 78.6659 47.8604C79.3953 48.2798 80.2249 48.4895 81.1549 48.4895Z" fill="#1A1919"/>
</g>
</svg>
