<svg width="103" height="105" viewBox="0 0 103 105" fill="none" xmlns="http://www.w3.org/2000/svg">
<g id="Group 20">
<g id="Rectangle 7">
<path d="M55.7283 4.1203C59.5546 1.91116 64.4474 3.22216 66.6565 7.0485L98.1565 61.6081C100.366 65.4344 99.0546 70.3272 95.2283 72.5363L59.7212 93.0363C55.8949 95.2454 51.0022 93.9344 48.793 90.1081L42.918 79.9323L40.4493 75.6563L37.9805 71.3803L33.043 62.8283L28.1055 54.2763L25.6368 50.0003L23.168 45.7243L17.293 35.5485C15.0839 31.7222 16.3949 26.8294 20.2212 24.6203L55.7283 4.1203Z" fill="#FFBE5A"/>
<path d="M33.043 62.8283L28.1055 54.2763L25.6368 50.0003L22.2856 62.5071C21.1421 66.7749 23.6747 71.1616 27.9424 72.3051L40.4493 75.6563L37.9805 71.3803L33.043 62.8283Z" fill="#FFBE5A"/>
</g>
<path id="primary" d="M79.4822 66.3635C79.8694 66.1373 80.1951 65.8195 80.4304 65.4385C80.6656 65.0574 80.8031 64.6248 80.8307 64.1792C80.9078 61.8635 80.336 59.5757 79.1795 57.5727C78.0231 55.5696 76.3277 53.9306 74.2837 52.8395C73.396 52.3447 72.4585 51.9437 71.4864 51.643C72.5101 45.4724 71.4573 39.149 68.4923 33.6598C62.4052 23.1166 50.3803 22.6556 44.8827 23.8615C44.3668 24.0032 43.8957 24.2752 43.5151 24.6512C39.7219 28.8092 34.1087 39.4536 40.1958 49.9968C43.4837 55.307 48.4507 59.3713 54.3199 61.5541C54.097 62.5519 53.9678 63.5678 53.9338 64.5885C53.863 66.9031 54.4374 69.1883 55.5932 71.1902C56.749 73.1921 58.4409 74.8322 60.4808 75.9282C60.8805 76.1272 61.3239 76.2244 61.7715 76.2112C62.2191 76.198 62.6572 76.0748 63.0467 75.8526C66.0339 73.9905 68.2626 71.1309 69.3318 67.7879C72.7707 68.535 76.371 68.0298 79.4822 66.3635Z" fill="white"/>
</g>
</svg>
