<svg width="58" height="58" viewBox="0 0 58 58" fill="none" xmlns="http://www.w3.org/2000/svg">
<path d="M56.2047 40.7236C56.5681 40.3564 56.8358 39.9057 56.9839 39.4116C57.1321 38.9174 57.1561 38.3951 57.0539 37.8911C56.4492 35.2913 55.1309 32.9162 53.2469 31.0321C51.3629 29.1481 48.9877 27.8298 46.388 27.2251C45.2527 26.9392 44.09 26.7726 42.9186 26.7278C42.218 19.5565 39.1612 12.8342 34.2254 7.61035C24.3087 -2.30632 10.7909 0.765914 5.03327 3.74688C4.50145 4.05831 4.05831 4.50145 3.74688 5.03327C0.765915 10.7909 -2.30632 24.3087 7.61035 34.2254C12.852 39.1538 19.5907 42.1954 26.7722 42.8743C26.8217 44.051 26.9808 45.2199 27.2473 46.3658C27.8586 48.9624 29.1791 51.334 31.0621 53.2169C32.945 55.0999 35.3166 56.4204 37.9132 57.0317C38.4173 57.1339 38.9396 57.1099 39.4338 56.9618C39.9279 56.8136 40.3786 56.5459 40.7458 56.1825C43.5146 53.2199 45.1418 49.3735 45.3349 45.3349C49.3841 45.1409 53.2396 43.5053 56.2047 40.7236Z" fill="#1A1919"/>
<path d="M20.3191 37.9999V17.5199L22.5591 19.7599H15.8391V15.5999H25.5031V37.9999H20.3191Z" fill="#FFBE5A"/>
<path d="M32.3384 38.2559C31.485 38.2559 30.749 37.9679 30.1304 37.3919C29.533 36.7945 29.2344 36.0372 29.2344 35.1199C29.2344 34.2025 29.533 33.4665 30.1304 32.9119C30.749 32.3359 31.485 32.0479 32.3384 32.0479C33.213 32.0479 33.949 32.3359 34.5464 32.9119C35.1437 33.4665 35.4424 34.2025 35.4424 35.1199C35.4424 36.0372 35.1437 36.7945 34.5464 37.3919C33.949 37.9679 33.213 38.2559 32.3384 38.2559Z" fill="#FFBE5A"/>
</svg>
