<svg width="58" height="58" viewBox="0 0 58 58" fill="none" xmlns="http://www.w3.org/2000/svg">
<path d="M56.2047 40.7236C56.5681 40.3564 56.8358 39.9057 56.9839 39.4116C57.1321 38.9174 57.1561 38.3951 57.0539 37.8911C56.4492 35.2913 55.1309 32.9162 53.2469 31.0321C51.3629 29.1481 48.9877 27.8298 46.388 27.2251C45.2527 26.9392 44.09 26.7726 42.9186 26.7278C42.218 19.5565 39.1612 12.8342 34.2254 7.61035C24.3087 -2.30632 10.7909 0.765914 5.03327 3.74688C4.50145 4.05831 4.05831 4.50145 3.74688 5.03327C0.765915 10.7909 -2.30632 24.3087 7.61035 34.2254C12.852 39.1538 19.5907 42.1954 26.7722 42.8743C26.8217 44.051 26.9808 45.2199 27.2473 46.3658C27.8586 48.9624 29.1791 51.334 31.0621 53.2169C32.945 55.0999 35.3166 56.4204 37.9132 57.0317C38.4173 57.1339 38.9396 57.1099 39.4338 56.9618C39.9279 56.8136 40.3786 56.5459 40.7458 56.1825C43.5146 53.2199 45.1418 49.3735 45.3349 45.3349C49.3841 45.1409 53.2396 43.5053 56.2047 40.7236Z" fill="#1A1919"/>
<path d="M20.4706 38.3839C18.9133 38.3839 17.3666 38.1812 15.8306 37.7759C14.2946 37.3492 12.9933 36.7519 11.9266 35.9839L13.9426 32.0159C14.796 32.6345 15.788 33.1252 16.9186 33.4879C18.0493 33.8505 19.1906 34.0319 20.3426 34.0319C21.644 34.0319 22.668 33.7759 23.4146 33.2639C24.1613 32.7519 24.5346 32.0479 24.5346 31.1519C24.5346 30.2985 24.204 29.6265 23.5426 29.1359C22.8813 28.6452 21.8146 28.3999 20.3426 28.3999H17.9746V24.9759L24.2146 17.9039L24.7906 19.7599H13.0466V15.5999H28.7266V18.9599L22.5186 26.0319L19.8946 24.5279H21.3986C24.1506 24.5279 26.2306 25.1465 27.6386 26.3839C29.0466 27.6212 29.7506 29.2105 29.7506 31.1519C29.7506 32.4105 29.42 33.5945 28.7586 34.7039C28.0973 35.7919 27.084 36.6772 25.7186 37.3599C24.3533 38.0425 22.604 38.3839 20.4706 38.3839Z" fill="#FFBE5A"/>
<path d="M35.0881 38.2559C34.2348 38.2559 33.4988 37.9679 32.8801 37.3919C32.2828 36.7945 31.9841 36.0372 31.9841 35.1199C31.9841 34.2025 32.2828 33.4665 32.8801 32.9119C33.4988 32.3359 34.2348 32.0479 35.0881 32.0479C35.9628 32.0479 36.6988 32.3359 37.2961 32.9119C37.8935 33.4665 38.1921 34.2025 38.1921 35.1199C38.1921 36.0372 37.8935 36.7945 37.2961 37.3919C36.6988 37.9679 35.9628 38.2559 35.0881 38.2559Z" fill="#FFBE5A"/>
</svg>
