<svg width="58" height="58" viewBox="0 0 58 58" fill="none" xmlns="http://www.w3.org/2000/svg">
<path d="M56.2047 40.7236C56.5681 40.3564 56.8358 39.9057 56.9839 39.4116C57.1321 38.9174 57.1561 38.3951 57.0539 37.8911C56.4492 35.2913 55.1309 32.9162 53.2469 31.0321C51.3629 29.1481 48.9877 27.8298 46.388 27.2251C45.2527 26.9392 44.09 26.7726 42.9186 26.7278C42.218 19.5565 39.1612 12.8342 34.2254 7.61035C24.3087 -2.30632 10.7909 0.765914 5.03327 3.74688C4.50145 4.05831 4.05831 4.50145 3.74688 5.03327C0.765915 10.7909 -2.30632 24.3087 7.61035 34.2254C12.852 39.1538 19.5907 42.1954 26.7722 42.8743C26.8217 44.051 26.9808 45.2199 27.2473 46.3658C27.8586 48.9624 29.1791 51.334 31.0621 53.2169C32.945 55.0999 35.3166 56.4204 37.9132 57.0317C38.4173 57.1339 38.9396 57.1099 39.4338 56.9618C39.9279 56.8136 40.3786 56.5459 40.7458 56.1825C43.5146 53.2199 45.1418 49.3735 45.3349 45.3349C49.3841 45.1409 53.2396 43.5053 56.2047 40.7236Z" fill="#1A1919"/>
<path d="M20.7759 38.3839C19.2186 38.3839 17.6719 38.1812 16.1359 37.7759C14.6213 37.3492 13.3199 36.7519 12.2319 35.9839L14.2799 32.0159C15.1333 32.6345 16.1146 33.1252 17.2239 33.4879C18.3546 33.8505 19.4959 34.0319 20.6479 34.0319C21.9493 34.0319 22.9733 33.7759 23.7199 33.2639C24.4666 32.7519 24.8399 32.0372 24.8399 31.1199C24.8399 30.5439 24.6906 30.0319 24.3919 29.5839C24.0933 29.1359 23.5599 28.7945 22.7919 28.5599C22.0453 28.3252 20.9893 28.2079 19.6239 28.2079H13.8959L15.0479 15.5999H28.7119V19.7599H16.9039L19.5919 17.3919L18.7919 26.3839L16.1039 24.0159H20.8399C23.0586 24.0159 24.8399 24.3252 26.1839 24.9439C27.5493 25.5412 28.5413 26.3625 29.1599 27.4079C29.7786 28.4532 30.0879 29.6372 30.0879 30.9599C30.0879 32.2825 29.7573 33.5092 29.0959 34.6399C28.4346 35.7492 27.4106 36.6559 26.0239 37.3599C24.6586 38.0425 22.9093 38.3839 20.7759 38.3839Z" fill="#FFBE5A"/>
<path d="M35.1352 38.2559C34.2818 38.2559 33.5458 37.9679 32.9272 37.3919C32.3298 36.7945 32.0312 36.0372 32.0312 35.1199C32.0312 34.2025 32.3298 33.4665 32.9272 32.9119C33.5458 32.3359 34.2818 32.0479 35.1352 32.0479C36.0098 32.0479 36.7459 32.3359 37.3432 32.9119C37.9405 33.4665 38.2392 34.2025 38.2392 35.1199C38.2392 36.0372 37.9405 36.7945 37.3432 37.3919C36.7459 37.9679 36.0098 38.2559 35.1352 38.2559Z" fill="#FFBE5A"/>
</svg>
