<svg width="58" height="58" viewBox="0 0 58 58" fill="none" xmlns="http://www.w3.org/2000/svg">
<path d="M56.2047 40.7236C56.5681 40.3564 56.8358 39.9057 56.9839 39.4116C57.1321 38.9174 57.1561 38.3951 57.0539 37.8911C56.4492 35.2913 55.1309 32.9162 53.2469 31.0321C51.3629 29.1481 48.9877 27.8298 46.388 27.2251C45.2527 26.9392 44.09 26.7726 42.9186 26.7278C42.218 19.5565 39.1612 12.8342 34.2254 7.61035C24.3087 -2.30632 10.7909 0.765914 5.03327 3.74688C4.50145 4.05831 4.05831 4.50145 3.74688 5.03327C0.765915 10.7909 -2.30632 24.3087 7.61035 34.2254C12.852 39.1538 19.5907 42.1954 26.7722 42.8743C26.8217 44.051 26.9808 45.2199 27.2473 46.3658C27.8586 48.9624 29.1791 51.334 31.0621 53.2169C32.945 55.0999 35.3166 56.4204 37.9132 57.0317C38.4173 57.1339 38.9396 57.1099 39.4338 56.9618C39.9279 56.8136 40.3786 56.5459 40.7458 56.1825C43.5146 53.2199 45.1418 49.3735 45.3349 45.3349C49.3841 45.1409 53.2396 43.5053 56.2047 40.7236Z" fill="#1A1919"/>
<path d="M22.3477 38.3838C20.2997 38.3838 18.5183 37.9572 17.0037 37.1038C15.5103 36.2505 14.3583 35.0025 13.5477 33.3598C12.737 31.7172 12.3317 29.6905 12.3317 27.2798C12.3317 24.6985 12.8117 22.5118 13.7717 20.7198C14.753 18.9278 16.097 17.5625 17.8037 16.6238C19.5317 15.6852 21.5157 15.2158 23.7557 15.2158C24.9503 15.2158 26.0917 15.3438 27.1797 15.5998C28.2677 15.8558 29.2063 16.2398 29.9957 16.7518L28.0757 20.5598C27.457 20.1332 26.7957 19.8452 26.0917 19.6958C25.3877 19.5252 24.6517 19.4398 23.8837 19.4398C21.9423 19.4398 20.4063 20.0265 19.2757 21.1998C18.145 22.3732 17.5797 24.1118 17.5797 26.4158C17.5797 26.7998 17.5797 27.2265 17.5797 27.6958C17.601 28.1652 17.665 28.6345 17.7717 29.1038L16.3317 27.7598C16.737 26.9278 17.2597 26.2345 17.8997 25.6798C18.5397 25.1038 19.297 24.6772 20.1717 24.3998C21.0677 24.1012 22.049 23.9518 23.1157 23.9518C24.5663 23.9518 25.8677 24.2398 27.0197 24.8158C28.1717 25.3918 29.089 26.2025 29.7717 27.2478C30.4757 28.2932 30.8277 29.5198 30.8277 30.9278C30.8277 32.4425 30.4437 33.7652 29.6757 34.8958C28.929 36.0052 27.9157 36.8692 26.6357 37.4878C25.377 38.0852 23.9477 38.3838 22.3477 38.3838ZM22.0597 34.5118C22.785 34.5118 23.425 34.3838 23.9797 34.1278C24.5557 33.8505 25.0037 33.4558 25.3237 32.9438C25.6437 32.4318 25.8037 31.8452 25.8037 31.1838C25.8037 30.1598 25.4517 29.3492 24.7477 28.7518C24.065 28.1332 23.1477 27.8238 21.9957 27.8238C21.2277 27.8238 20.5557 27.9732 19.9797 28.2718C19.4037 28.5492 18.945 28.9438 18.6037 29.4558C18.2837 29.9465 18.1237 30.5225 18.1237 31.1838C18.1237 31.8238 18.2837 32.3998 18.6037 32.9118C18.9237 33.4025 19.3717 33.7972 19.9477 34.0958C20.5237 34.3732 21.2277 34.5118 22.0597 34.5118Z" fill="#FFBE5A"/>
<path d="M35.9632 38.2558C35.1098 38.2558 34.3738 37.9678 33.7552 37.3918C33.1578 36.7945 32.8592 36.0372 32.8592 35.1198C32.8592 34.2025 33.1578 33.4665 33.7552 32.9118C34.3738 32.3358 35.1098 32.0478 35.9632 32.0478C36.8378 32.0478 37.5738 32.3358 38.1712 32.9118C38.7685 33.4665 39.0672 34.2025 39.0672 35.1198C39.0672 36.0372 38.7685 36.7945 38.1712 37.3918C37.5738 37.9678 36.8378 38.2558 35.9632 38.2558Z" fill="#FFBE5A"/>
</svg>
