<svg width="58" height="58" viewBox="0 0 58 58" fill="none" xmlns="http://www.w3.org/2000/svg">
<path d="M56.2047 40.7236C56.5681 40.3564 56.8358 39.9057 56.9839 39.4116C57.1321 38.9174 57.1561 38.3951 57.0539 37.8911C56.4492 35.2913 55.1309 32.9162 53.2469 31.0321C51.3629 29.1481 48.9877 27.8298 46.388 27.2251C45.2527 26.9392 44.09 26.7726 42.9186 26.7278C42.218 19.5565 39.1612 12.8342 34.2254 7.61035C24.3087 -2.30632 10.7909 0.765914 5.03327 3.74688C4.50145 4.05831 4.05831 4.50145 3.74688 5.03327C0.765915 10.7909 -2.30632 24.3087 7.61035 34.2254C12.852 39.1538 19.5907 42.1954 26.7722 42.8743C26.8217 44.051 26.9808 45.2199 27.2473 46.3658C27.8586 48.9624 29.1791 51.334 31.0621 53.2169C32.945 55.0999 35.3166 56.4204 37.9132 57.0317C38.4173 57.1339 38.9396 57.1099 39.4338 56.9618C39.9279 56.8136 40.3786 56.5459 40.7458 56.1825C43.5146 53.2199 45.1418 49.3735 45.3349 45.3349C49.3841 45.1409 53.2396 43.5053 56.2047 40.7236Z" fill="#1A1919"/>
<path d="M12.8897 37.9998V34.6398L21.5297 26.4798C22.2124 25.8612 22.7137 25.3065 23.0337 24.8158C23.3537 24.3252 23.5671 23.8772 23.6737 23.4718C23.8017 23.0665 23.8657 22.6932 23.8657 22.3518C23.8657 21.4558 23.5564 20.7732 22.9377 20.3038C22.3404 19.8132 21.4551 19.5678 20.2817 19.5678C19.3431 19.5678 18.4684 19.7492 17.6577 20.1118C16.8684 20.4745 16.1964 21.0398 15.6417 21.8078L11.8657 19.3758C12.7191 18.0958 13.9137 17.0825 15.4497 16.3358C16.9857 15.5892 18.7564 15.2158 20.7617 15.2158C22.4257 15.2158 23.8764 15.4932 25.1137 16.0478C26.3724 16.5812 27.3431 17.3385 28.0257 18.3198C28.7297 19.3012 29.0817 20.4745 29.0817 21.8398C29.0817 22.5652 28.9857 23.2905 28.7937 24.0158C28.6231 24.7198 28.2604 25.4665 27.7057 26.2558C27.1724 27.0452 26.3831 27.9305 25.3377 28.9118L18.1697 35.6638L17.1777 33.7758H29.8177V37.9998H12.8897Z" fill="#FFBE5A"/>
<path d="M35.2132 38.2558C34.3599 38.2558 33.6239 37.9678 33.0052 37.3918C32.4079 36.7945 32.1092 36.0372 32.1092 35.1198C32.1092 34.2025 32.4079 33.4665 33.0052 32.9118C33.6239 32.3358 34.3599 32.0478 35.2132 32.0478C36.0879 32.0478 36.8239 32.3358 37.4212 32.9118C38.0186 33.4665 38.3172 34.2025 38.3172 35.1198C38.3172 36.0372 38.0186 36.7945 37.4212 37.3918C36.8239 37.9678 36.0879 38.2558 35.2132 38.2558Z" fill="#FFBE5A"/>
</svg>
