<svg width="600" height="600" viewBox="0 0 600 600" fill="none" xmlns="http://www.w3.org/2000/svg">
<circle cx="505" cy="340.197" r="25" fill="#EE5771"/>
<path d="M512.648 344.918C515.849 344.06 517.748 340.77 516.891 337.569C516.033 334.368 512.743 332.469 509.542 333.326L508.576 333.585L508.318 332.619C507.46 329.419 504.17 327.519 500.969 328.377C497.768 329.234 495.869 332.524 496.727 335.725L500.091 348.282L512.648 344.918Z" fill="white"/>
<path d="M196.852 266.335C216.247 220.467 275.296 196.63 334.925 212.607C394.553 228.584 433.773 278.753 427.635 328.173C431.224 339.089 434.636 343.787 443.002 349.784C435.629 360.478 428.49 361.844 414.935 363.013C419.129 370.765 421.469 375.109 424.812 382.746C413.557 388.569 406.428 387.573 393.779 385.807L393.66 385.79L393.776 385.847C399.91 388.86 403.384 390.567 405.052 395.759C398.463 402.13 389.286 402.112 378.114 399.119C378.683 410.663 325.038 415.003 283.663 403.917C242.289 392.83 198.001 362.249 204.265 352.536C193.093 349.543 185.137 344.97 182.617 336.158C186.657 332.495 190.52 332.754 197.338 333.212L197.467 333.221L197.355 333.175C185.518 328.381 178.846 325.678 172.01 315.008C178.724 310.066 182.923 307.473 190.431 302.857C179.276 295.067 173.776 290.315 172.739 277.368C182.983 276.356 188.286 273.994 196.852 266.335Z" fill="#1A1919"/>
<path d="M203.485 174.767C195.098 205.929 195.717 222.977 203.89 253.973C206.533 249.894 209.525 246.046 212.827 242.446C211.536 230.333 212.424 220.104 215.893 204.668C221.018 181.866 240.447 200.194 252.868 216.068C262.199 212.578 272.22 210.182 282.674 208.999C260.936 182.732 213.745 136.652 203.485 174.767Z" fill="#1A1919"/>
<path d="M215.893 204.668C212.424 220.104 211.536 230.333 212.827 242.446C223.399 230.923 237.156 221.944 252.868 216.068C240.447 200.194 221.018 181.866 215.893 204.668Z" fill="#EE5771"/>
<path d="M467.689 245.56C459.372 276.741 450.312 291.195 427.736 313.952C427.486 309.098 426.819 304.27 425.759 299.501C432.934 289.656 437.279 280.353 441.993 265.251C448.956 242.942 422.966 249.1 404.272 256.636C397.936 248.948 390.455 241.863 381.994 235.611C413.953 223.733 477.862 207.422 467.689 245.56Z" fill="#1A1919"/>
<path d="M441.993 265.251C437.279 280.353 432.934 289.656 425.759 299.501C422.365 284.236 414.942 269.581 404.272 256.636C422.966 249.1 448.956 242.942 441.993 265.251Z" fill="#EE5771"/>
<path d="M311.989 340.717C310.753 345.329 304.383 350.07 298.513 348.498C292.643 346.925 289.496 339.633 290.732 335.021C291.968 330.409 297.118 330.223 302.988 331.796C308.858 333.369 313.225 336.105 311.989 340.717Z" fill="#EE5771"/>
<circle cx="257.318" cy="292.708" r="28.9362" transform="rotate(15 257.318 292.708)" fill="#1A1919" stroke="white" stroke-width="6"/>
<ellipse cx="250.371" cy="280.676" rx="12.1822" ry="11.3962" transform="rotate(15 250.371 280.676)" fill="white"/>
<ellipse cx="236.952" cy="299.359" rx="5.10865" ry="5.8946" transform="rotate(29.3991 236.952 299.359)" fill="white"/>
<circle cx="362.083" cy="320.779" r="28.9362" transform="rotate(15 362.083 320.779)" fill="#1A1919" stroke="white" stroke-width="6"/>
<ellipse cx="355.137" cy="308.747" rx="12.1822" ry="11.3962" transform="rotate(15 355.137 308.747)" fill="white"/>
<ellipse cx="341.718" cy="327.431" rx="5.10865" ry="5.8946" transform="rotate(29.3991 341.718 327.431)" fill="white"/>
<path d="M405.728 194.12C409.555 191.911 414.447 193.222 416.656 197.049L448.156 251.608C450.366 255.435 449.055 260.327 445.228 262.536L409.721 283.036C405.895 285.246 401.002 283.935 398.793 280.108L392.918 269.932L390.449 265.656L387.981 261.38L383.043 252.828L378.106 244.276L375.637 240L373.168 235.724L367.293 225.549C365.084 221.722 366.395 216.829 370.221 214.62L405.728 194.12Z" fill="#FFBE5A"/>
<path d="M383.043 252.828L378.106 244.276L375.637 240L372.286 252.507C371.142 256.775 373.675 261.162 377.942 262.305L390.449 265.656L387.981 261.38L383.043 252.828Z" fill="#FFBE5A"/>
<path d="M429.482 256.364C429.869 256.137 430.195 255.82 430.43 255.438C430.666 255.057 430.803 254.625 430.831 254.179C430.908 251.863 430.336 249.576 429.18 247.573C428.023 245.57 426.328 243.931 424.284 242.839C423.396 242.345 422.458 241.944 421.486 241.643C422.51 235.472 421.457 229.149 418.492 223.66C412.405 213.117 400.38 212.656 394.883 213.862C394.367 214.003 393.896 214.275 393.515 214.651C389.722 218.809 384.109 229.454 390.196 239.997C393.484 245.307 398.451 249.371 404.32 251.554C404.097 252.552 403.968 253.568 403.934 254.588C403.863 256.903 404.437 259.188 405.593 261.19C406.749 263.192 408.441 264.832 410.481 265.928C410.881 266.127 411.324 266.224 411.771 266.211C412.219 266.198 412.657 266.075 413.047 265.853C416.034 263.991 418.263 261.131 419.332 257.788C422.771 258.535 426.371 258.03 429.482 256.364Z" fill="white"/>
<path d="M156.103 387.634C160.428 375.691 154.253 362.502 142.31 358.176L106.245 345.115C94.3017 340.789 81.1131 346.965 76.7875 358.908L76.1368 360.704C72.1706 371.656 77.8329 383.749 88.7841 387.715L98.6985 391.306L126.645 401.427C138.589 405.753 151.777 399.577 156.103 387.634Z" fill="#1A1919"/>
<path d="M88.7841 387.715L98.6985 391.306L94.7824 402.118L88.7841 387.715Z" fill="#1A1919"/>
<path d="M418.894 122.149L492 193.149" stroke="#1A1919" stroke-width="37" stroke-linecap="round"/>
<path d="M415.413 127.461L425.312 117.562L434.886 127.136L424.987 137.035L421.706 133.754L429.725 125.736L429.739 127.164L425.284 122.709L426.712 122.723L418.694 130.742L415.413 127.461ZM435.788 148.289C434.987 147.488 434.37 146.616 433.936 145.673C433.512 144.74 433.281 143.792 433.243 142.83C433.215 141.859 433.375 140.917 433.724 140.002C434.082 139.097 434.634 138.272 435.378 137.527C436.133 136.773 436.958 136.221 437.853 135.872C438.768 135.524 439.706 135.368 440.667 135.406C441.639 135.434 442.591 135.66 443.524 136.085C444.467 136.518 445.339 137.136 446.14 137.937C446.951 138.748 447.569 139.62 447.993 140.554C448.417 141.487 448.644 142.439 448.672 143.41C448.71 144.372 448.549 145.305 448.191 146.21C447.852 147.115 447.305 147.945 446.551 148.699C445.806 149.444 444.976 149.991 444.062 150.34C443.157 150.698 442.218 150.863 441.247 150.835C440.286 150.797 439.338 150.566 438.405 150.142C437.471 149.718 436.599 149.1 435.788 148.289ZM438.49 145.588C438.801 145.899 439.145 146.13 439.522 146.281C439.909 146.441 440.305 146.517 440.71 146.507C441.134 146.498 441.554 146.399 441.969 146.21C442.393 146.012 442.798 145.72 443.185 145.334C443.571 144.947 443.859 144.546 444.047 144.131C444.245 143.707 444.344 143.288 444.344 142.873C444.363 142.458 444.293 142.057 444.132 141.671C443.981 141.294 443.75 140.95 443.439 140.638C443.128 140.327 442.779 140.092 442.393 139.931C442.016 139.78 441.615 139.71 441.191 139.719C440.785 139.729 440.371 139.832 439.946 140.03C439.531 140.219 439.131 140.506 438.744 140.893C438.358 141.279 438.065 141.685 437.867 142.109C437.679 142.524 437.575 142.939 437.556 143.354C437.556 143.769 437.632 144.164 437.782 144.542C437.943 144.928 438.178 145.277 438.49 145.588ZM451.796 164.297C451.005 163.505 450.392 162.647 449.958 161.723C449.543 160.799 449.317 159.857 449.279 158.895C449.251 157.943 449.416 157.014 449.774 156.109C450.132 155.204 450.693 154.37 451.457 153.606C452.221 152.842 453.055 152.281 453.96 151.923C454.865 151.565 455.794 151.4 456.746 151.428C457.708 151.466 458.646 151.697 459.561 152.121C460.494 152.545 461.357 153.153 462.149 153.945C463.12 154.916 463.808 155.944 464.213 157.028C464.628 158.122 464.76 159.234 464.609 160.366L460.621 160.14C460.697 159.48 460.654 158.871 460.494 158.315C460.352 157.759 460.06 157.259 459.617 156.816C459.268 156.467 458.896 156.208 458.5 156.038C458.104 155.869 457.694 155.788 457.269 155.798C456.855 155.817 456.435 155.925 456.011 156.123C455.596 156.312 455.2 156.595 454.823 156.972C454.446 157.349 454.158 157.749 453.96 158.174C453.772 158.589 453.668 159.003 453.649 159.418C453.64 159.843 453.72 160.253 453.89 160.649C454.059 161.045 454.318 161.417 454.667 161.766C455.11 162.209 455.605 162.506 456.152 162.657C456.718 162.808 457.331 162.845 457.991 162.77L458.217 166.758C457.095 166.899 455.983 166.767 454.879 166.362C453.795 165.957 452.768 165.268 451.796 164.297ZM463.894 175.942L471.927 167.91V169.352L468.306 165.732L470.894 163.144L479.974 172.223L477.386 174.811L473.765 171.19H475.208L467.175 179.223L463.894 175.942ZM475.417 187.466L485.317 177.566L488.598 180.847L483.45 185.995L492.006 184.255L495.146 187.395L485.246 197.294L481.965 194.013L487.099 188.88L478.571 190.619L475.417 187.466Z" fill="white"/>
<path d="M311.209 473.026L322.945 476.72C341.815 482.658 362.39 476.272 374.582 460.693C387.89 443.687 410.998 437.805 430.817 446.379L432.62 447.159C447.974 453.801 465.633 452.327 479.673 443.231L486.345 438.909" stroke="#FFBE5A" stroke-width="37" stroke-linecap="round"/>
<path d="M310.948 480.653C310.667 480.567 310.373 480.457 310.066 480.321C309.759 480.186 309.441 480.019 309.111 479.821L310.443 476.275C310.61 476.368 310.77 476.438 310.923 476.484C311.42 476.636 311.852 476.545 312.219 476.21C312.586 475.876 312.919 475.378 313.218 474.717C313.521 474.043 313.818 473.276 314.108 472.416L315.873 467.246L327.179 470.695L323.095 484.086L318.657 482.732L321.965 471.885L322.649 473.139L317.77 471.652L318.96 470.906L318.101 473.446C317.67 474.723 317.223 475.869 316.76 476.884C316.314 477.891 315.814 478.729 315.262 479.397C314.714 480.052 314.084 480.494 313.373 480.723C312.674 480.956 311.866 480.933 310.948 480.653Z" fill="#1A1919"/>
<path d="M341.189 477.336L347.28 475.983L348.018 479.302L341.926 480.655L341.189 477.336ZM342.638 482.382L349.471 480.864L350.243 484.339L338.88 486.863L335.844 473.197L346.953 470.728L347.725 474.204L341.146 475.665L342.638 482.382Z" fill="#1A1919"/>
<path d="M362.376 463.241L365.872 460.07L375.277 470.441L371.78 473.612L362.376 463.241ZM368.55 476.54L365.054 479.711L355.65 469.34L359.146 466.169L368.55 476.54ZM368.551 469.574L364.847 472.933L362.241 470.059L365.945 466.7L368.551 469.574Z" fill="#1A1919"/>
<path d="M388.216 454.594L384.09 447.346L381.291 448.939L381.751 449.828C382.091 450.478 382.39 451.098 382.649 451.687C382.907 452.277 383.117 452.833 383.276 453.356C383.447 453.872 383.56 454.352 383.614 454.797C383.661 455.231 383.64 455.626 383.552 455.983L378.947 457.96C379.33 457.742 379.57 457.437 379.668 457.043C379.771 456.632 379.766 456.151 379.653 455.602C379.533 455.041 379.327 454.422 379.034 453.746C378.745 453.05 378.398 452.305 377.99 451.509L376.022 447.727L386.311 441.87L392.248 452.298L388.216 454.594ZM381.766 463.72L378.6 458.158L393.026 449.945L396.192 455.507L392.438 457.645L391.082 455.263L384.165 459.201L385.52 461.583L381.766 463.72Z" fill="#1A1919"/>
<path d="M402.364 449.944L401.589 435.966L406.222 435.709L406.997 449.687L402.364 449.944Z" fill="#1A1919"/>
<path d="M430.552 438.669L434.902 440.501L429.467 453.403L425.117 451.571L430.552 438.669ZM421.099 449.878L416.749 448.046L422.184 435.144L426.534 436.976L421.099 449.878ZM427.415 446.94L422.807 444.999L424.314 441.423L428.921 443.364L427.415 446.94Z" fill="#1A1919"/>
<path d="M444.267 458.519L443.879 444.525L454.535 444.23L454.636 447.888L447.599 448.083L448.59 447.035L448.905 458.391L444.267 458.519Z" fill="#1A1919"/>
<path d="M469.736 456.876L462.951 444.63L467.009 442.381L470.537 448.749L471.225 440.045L475.109 437.893L481.894 450.139L477.836 452.388L474.317 446.038L473.637 454.715L469.736 456.876Z" fill="#1A1919"/>
<path d="M149 186.994C155 136.994 211 104.494 259.5 127.994" stroke="#EE5771" stroke-width="37" stroke-linecap="round"/>
<path d="M163.335 165.064C162.779 166.036 162.112 166.853 161.335 167.515C160.553 168.158 159.702 168.624 158.785 168.913C157.873 169.191 156.934 169.276 155.966 169.168C154.999 169.061 154.046 168.739 153.109 168.203C152.171 167.667 151.411 167.01 150.827 166.23C150.243 165.451 149.84 164.599 149.617 163.673C149.4 162.735 149.376 161.769 149.545 160.775C149.709 159.763 150.069 158.771 150.625 157.799C151.306 156.606 152.117 155.672 153.056 154.996C154.002 154.308 155.041 153.888 156.172 153.736L157.003 157.643C156.346 157.744 155.771 157.945 155.276 158.246C154.777 158.529 154.371 158.942 154.06 159.486C153.815 159.914 153.663 160.342 153.604 160.768C153.544 161.195 153.575 161.612 153.695 162.019C153.823 162.414 154.037 162.79 154.34 163.148C154.631 163.498 155.008 163.806 155.471 164.071C155.934 164.335 156.396 164.507 156.858 164.587C157.308 164.66 157.735 164.651 158.14 164.56C158.552 164.457 158.927 164.272 159.264 164.004C159.602 163.736 159.893 163.388 160.137 162.96C160.448 162.416 160.605 161.86 160.607 161.293C160.603 160.708 160.479 160.106 160.232 159.489L164.02 158.222C164.452 159.268 164.617 160.376 164.516 161.547C164.41 162.699 164.016 163.872 163.335 165.064Z" fill="white"/>
<path d="M171.666 151.97L163.674 143.896L165.117 143.903L161.478 147.505L158.903 144.904L168.029 135.871L170.603 138.472L166.964 142.074L166.972 140.632L174.963 148.705L171.666 151.97Z" fill="white"/>
<path d="M181.006 142.049L179.498 126.845L183.545 124.575L195.73 133.794L191.474 136.18L181.78 128.133L183.385 127.233L185.193 139.702L181.006 142.049ZM182.988 138.141L182.372 134.588L187.989 131.439L190.699 133.817L182.988 138.141Z" fill="white"/>
<path d="M203.624 130.59L200.927 119.555L202.16 120.303L197.186 121.519L196.317 117.964L208.79 114.915L209.659 118.47L204.685 119.686L205.434 118.453L208.131 129.488L203.624 130.59Z" fill="white"/>
<path d="M221.591 127.089L221.832 115.732L222.83 116.773L217.711 116.665L217.789 113.006L230.626 113.278L230.548 116.937L225.429 116.829L226.471 115.83L226.23 127.188L221.591 127.089Z" fill="white"/>
<path d="M237.069 127.862L240.485 114.285L244.985 115.417L241.569 128.994L237.069 127.862Z" fill="white"/>
<circle cx="98.9292" cy="365.842" r="6" transform="rotate(43.8507 98.9292 365.842)" fill="white"/>
<circle cx="117.001" cy="372.977" r="6" transform="rotate(43.8507 117.001 372.977)" fill="white"/>
<circle cx="135.072" cy="380.113" r="6" transform="rotate(43.8507 135.072 380.113)" fill="white"/>
</svg>
