<svg width="184" height="90" viewBox="0 0 184 90" fill="none" xmlns="http://www.w3.org/2000/svg">
<g id="Group 16">
<path id="VH" d="M3.40774 0C1.84944 0 0.841539 1.64674 1.55049 3.03443L45.2358 88.5435C45.5922 89.2412 46.3096 89.6802 47.093 89.6802H69.7083C70.4522 89.6802 71.1398 89.284 71.5128 88.6403L98.3045 42.4038C99.3364 40.6231 102.05 41.2546 102.19 43.3079L104.108 71.5121C104.197 72.8212 105.461 73.7207 106.735 73.4063C116.218 71.0661 122.357 70.8624 132.1 73.6339C132.93 73.87 133.827 73.5883 134.357 72.9065L158.893 41.3054C160.112 39.7362 162.626 40.5978 162.626 42.5845V87.5946C162.626 88.7465 163.56 89.6802 164.712 89.6802H181.446C182.598 89.6802 183.532 88.7465 183.532 87.5946V2.08559C183.532 0.933749 182.598 0 181.446 0H164.712C163.56 0 162.626 0.933749 162.626 2.08559V31.2838C162.626 32.4356 161.692 33.3694 160.541 33.3694H116.96C115.808 33.3694 114.874 32.4356 114.874 31.2838L114.874 2.08558C114.874 0.933747 113.941 0 112.789 0H95.1653C94.3625 0 93.631 0.460767 93.2843 1.18481L60.1134 70.4535C59.3872 71.9698 57.2574 72.0478 56.4223 70.5887L54.8156 67.7816L21.433 1.15137C21.0794 0.44564 20.3577 0 19.5683 0H3.40774Z" fill="#1A1919"/>
<path id="Ellipse 2" d="M72.9961 12.5135C72.9961 18.8486 66.4598 27.1126 58.397 27.1126C50.3341 27.1126 43.7979 18.8486 43.7979 12.5135C43.7979 6.17838 50.3341 4.17114 58.397 4.17114C66.4598 4.17114 72.9961 6.17838 72.9961 12.5135Z" fill="#1A1919"/>
</g>
</svg>
