<svg width="116" height="146" viewBox="0 0 116 146" fill="none" xmlns="http://www.w3.org/2000/svg">
<path id="?" d="M22.8733 89.5296C25.313 85.3039 28.138 81.9445 31.3481 79.4514C34.679 77.028 38.1027 75.1411 41.619 73.7907C45.2561 72.5099 48.9093 71.48 52.5788 70.7009C56.2482 69.9218 59.6668 69.1589 62.8346 68.4121C66.1928 67.6144 69.1634 66.5122 71.7462 65.1058C74.4497 63.769 76.5683 61.7726 78.1018 59.1164C80.6113 54.7699 80.8217 50.223 78.7332 45.4756C76.7654 40.7979 72.8235 36.7513 66.9075 33.3357C61.2329 30.0595 55.465 28.3391 49.6036 28.1747C43.812 27.8895 38.2475 29.0233 32.9101 31.5761L18.4204 6.06605C27.5019 1.48945 37.5835 -0.497499 48.6651 0.105202C59.8165 0.587162 71.4893 4.34832 83.6836 11.3887C92.7387 16.6167 99.9405 22.5454 105.289 29.1749C110.707 35.6836 113.919 42.5283 114.924 49.7091C116.051 56.9595 114.523 64.2068 110.34 71.451C107.622 76.1596 104.492 79.9068 100.952 82.6923C97.4123 85.4779 93.7285 87.5366 89.901 88.8683C86.0735 90.2001 82.1694 91.2462 78.1888 92.0066C74.3289 92.8367 70.6247 93.6762 67.076 94.525C63.5273 95.3738 60.2711 96.5525 57.3074 98.061C54.4644 99.6393 52.1019 102.058 50.2199 105.318L22.8733 89.5296ZM10.3926 142.933C5.32171 140.005 2.09738 135.971 0.719599 130.829C-0.658176 125.687 -0.0574923 120.882 2.52165 116.415C5.1705 111.827 8.99619 108.965 13.9987 107.829C19.0709 106.571 24.1425 107.407 29.2134 110.334C34.405 113.332 37.6642 117.306 38.9909 122.258C40.5081 127.158 39.9423 131.902 37.2934 136.49C34.7143 140.958 30.8538 143.88 25.7118 145.258C20.6906 146.705 15.5842 145.93 10.3926 142.933Z" fill="#FFBE5A"/>
</svg>
