<svg width="64" height="64" viewBox="0 0 64 64" fill="none" xmlns="http://www.w3.org/2000/svg">
<path id="Subtract" fill-rule="evenodd" clip-rule="evenodd" d="M64 32C64 49.6732 49.6731 64 32 64C14.3269 64 0 49.6732 0 32C0 14.3268 14.3269 0 32 0C49.6731 0 64 14.3268 64 32ZM13.9201 32.1695L21.7296 34.7141C21.8613 34.737 21.9964 34.7288 22.1243 34.6901C23.9008 33.5682 39.9973 23.4031 40.9259 23.0616C41.072 23.0173 41.1809 23.0672 41.152 23.1682C40.78 24.4728 26.7997 36.8995 26.7997 36.8995C26.7997 36.8995 26.6637 37.0544 26.6885 37.1794C26.6924 37.2116 26.7008 37.243 26.7135 37.2725C26.7197 37.2872 26.727 37.3016 26.7354 37.3152C26.7604 37.3566 26.7941 37.3922 26.8342 37.4194C28.6083 38.6061 36.6371 44.0018 38.96 46C39.0855 46.1217 39.2249 46.2276 39.3751 46.3155C39.4749 46.374 39.5795 46.4244 39.6879 46.4663C39.9593 46.5714 40.2492 46.6206 40.54 46.6112C41.7238 46.5667 42.0542 45.2664 42.0542 45.2664C42.0542 45.2664 47.5763 23.0456 47.7608 20.0682C47.7699 19.9247 47.7803 19.8069 47.7889 19.7003C47.7979 19.5902 47.8047 19.4922 47.8059 19.3904C47.8155 19.1586 47.7927 18.9266 47.7382 18.701C47.7104 18.5733 47.6493 18.4553 47.5609 18.3591C47.4726 18.2628 47.3603 18.1917 47.2355 18.153C46.731 17.9613 45.8755 18.2496 45.8755 18.2496C45.8755 18.2496 15.5776 29.1395 13.8472 30.3456C13.4739 30.6046 13.3491 30.7552 13.2872 30.9323C12.9867 31.7909 13.9201 32.1695 13.9201 32.1695Z" fill="#1A1919"/>
</svg>
