<svg width="59" height="77" viewBox="0 0 59 77" fill="none" xmlns="http://www.w3.org/2000/svg">
<path id="?" d="M32.658 51.9692C32.0166 49.6218 31.8163 47.4462 32.057 45.4422C32.3645 43.4206 32.8942 41.5564 33.646 39.8495C34.4647 38.1249 35.3777 36.4835 36.3851 34.9251C37.3925 33.3666 38.3179 31.9016 39.1613 30.53C40.0533 29.0738 40.7021 27.6455 41.1078 26.2451C41.5802 24.8272 41.6149 23.3804 41.2117 21.905C40.552 19.4905 39.0176 17.809 36.6086 16.8603C34.2664 15.8941 31.4572 15.8412 28.1809 16.7017C25.0384 17.527 22.4134 18.9352 20.306 20.9263C18.1803 22.8503 16.6358 25.1967 15.6725 27.9656L1.58531 24.0101C3.14193 19.2166 5.96398 14.9892 10.0515 11.328C14.1206 7.59969 19.5318 4.84874 26.2849 3.07513C31.2996 1.75809 35.9141 1.33684 40.1284 1.81137C44.3244 2.21884 47.8678 3.51649 50.7588 5.70432C53.7166 7.87459 55.7453 10.9717 56.8449 14.9958C57.5596 17.6114 57.7906 20.0306 57.5381 22.2533C57.2855 24.4761 56.7256 26.492 55.8584 28.3012C54.9912 30.1103 53.9962 31.8452 52.8734 33.5058C51.8175 35.1488 50.8193 36.7408 49.8787 38.2817C48.9382 39.8225 48.2166 41.3778 47.7139 42.9474C47.2781 44.4995 47.3076 46.1809 47.8024 47.9918L32.658 51.9692ZM47.18 75.2182C44.3718 75.9557 41.8177 75.6562 39.5176 74.3195C37.2175 72.9828 35.7284 71.0737 35.0504 68.5922C34.354 66.0436 34.6794 63.694 36.0265 61.5431C37.3553 59.3252 39.4238 57.8475 42.2321 57.11C45.1071 56.3549 47.6521 56.6209 49.867 57.9081C52.1305 59.1107 53.6104 60.9862 54.3067 63.5348C54.9848 66.0163 54.6686 68.3995 53.3581 70.6845C52.1145 72.9518 50.0551 74.4631 47.18 75.2182Z" stroke="#FFBE5A" stroke-width="2"/>
</svg>
